#define lock_open_width 7
#define lock_open_height 10
static char lock_open_bits[] = {
  0x0E, 0x11, 0x01, 0x01, 0x02, 0x7F, 0x77, 0x77, 0x7F, 0x00, };
