#define lock_closed_width 7
#define lock_closed_height 10
static char lock_closed_bits[] = {
  0x00, 0x00, 0x1C, 0x22, 0x22, 0x7F, 0x77, 0x77, 0x7F, 0x00, };
